{"title":"Jai Ho (2014) - Baaki Sab First Class - Salman Khan - HD 1080p {","uid":9368506,"size":44842373,"categoryP":"video","categoryS":"music_videos","magnet":"?xt=urn:btih:dd29ab04015f5984784c0de37debb3a39e311473&amp;dn=Jai+Ho+%282014%29+-+Baaki+Sab+First+Class+-+Salman+Khan+-+HD+1080p+%7B&amp;tr=udp%3A%2F%2Ftracker.openbittorrent.com%3A80&amp;tr=udp%3A%2F%2Fopen.demonii.com%3A1337&amp;tr=udp%3A%2F%2Ftracker.coppersurfer.tk%3A6969&amp;tr=udp%3A%2F%2Fexodus.desync.com%3A6969","seeders":0,"leechers":0,"uploader":"Palash995","files":1,"time":1387478056,"description":"[center][b][size=200][color=red]Without Any reason..Don't Dislike the torrent.....please check and give your feedback[/color][/size]\n\n[img]http://i843.photobucket.com/albums/zz358/0Krish0/qiWyCf1pvj_zps682a8ccb.png[/img]\n\n[size=100][color=red]Jai Ho (2014) - Baaki Sab First Class - Salman Khan - HD 1080p[/color][/size]\n\n\n\nPresenting the very first song &quot;Baaki Sab First Class&quot; from the movie &quot;JAI HO&quot; starring Salman Khan, Tabu in lead roles and is set to release on 24 Jan 2014.\n\nSong: BAAKI SAB FIRST CLASS HAI\nSinger: WAJID\nMusic: SAJID WAJID\nLyrics: SAJID, IRFAN KAMAL, DANISH SABRI\nMovie: JAI HO\nMusic Label: T-SERIES\n\nScreenshots:-\n\n[img]http://img542.imageshack.us/img542/3623/r6m0.jpg[/img]\n\n[img]http://img853.imageshack.us/img853/5923/laud.jpg[/img]\n\n[img]http://img51.imageshack.us/img51/6690/wfbv.jpg[/img]\n\nMedia Info:-\n\nGeneral\nComplete name                            : Jai Ho (2014) - Baaki Sab First Class - Salman Khan - HD 1080p {DAKU RG} {GreatPalash}.mp4\nFormat                                   : MPEG-4\nFormat profile                           : Base Media\nCodec ID                                 : isom\nFile size                                : 42.8 MiB\nDuration                                 : 1mn 29s\nOverall bit rate mode                    : Variable\nOverall bit rate                         : 4 015 Kbps\nWriting application                      : Lavf53.31.100\n\nVideo\nID                                       : 1\nFormat                                   : AVC\nFormat/Info                              : Advanced Video Codec\nFormat profile                           : &lt;a class=&quot;__cf_email__&quot; href=&quot;/cdn-cgi/l/email-protection&quot; data-cfemail=&quot;b0f8d9d7d8f0fc849e81&quot;&gt;[email&amp;#160;protected]&lt;/a&gt;&lt;script data-cfhash='f9e31' type=&quot;text/javascript&quot;&gt;\n/* &lt;![CDATA[ */!function(){try{var t=&quot;currentScript&quot;in document?document.currentScript:function(){for(var t=document.getElementsByTagName(&quot;script&quot;),e=t.length;e--;)if(t[e].getAttribute(&quot;data-cfhash&quot;))return t[e]}();if(t&amp;&amp;t.previousSibling){var e,r,n,i,c=t.previousSibling,a=c.getAttribute(&quot;data-cfemail&quot;);if(a){for(e=&quot;&quot;,r=parseInt(a.substr(0,2),16),n=2;a.length-n;n+=2)i=parseInt(a.substr(n,2),16)^r,e+=String.fromCharCode(i);e=document.createTextNode(e),c.parentNode.replaceChild(e,c)}t.parentNode.removeChild(t);}}catch(u){}}()/* ]]&gt; */&lt;/script&gt;\nFormat settings, CABAC                   : Yes\nFormat settings, ReFrames                : 3 frames\nCodec ID                                 : avc1\nCodec ID/Info                            : Advanced Video Coding\nDuration                                 : 1mn 29s\nBit rate mode                            : Variable\nBit rate                                 : 3 882 Kbps\nMaximum bit rate                         : 19.2 Mbps\nWidth                                    : 1 920 pixels\nHeight                                   : 1 080 pixels\nDisplay aspect ratio                     : 16:9\nFrame rate mode                          : Constant\nFrame rate                               : 25.000 fps\nStandard                                 : PAL\nColor space                              : YUV\nChroma subsampling                       : 4:2:0\nBit depth                                : 8 bits\nScan type                                : Progressive\nBits/(Pixel*Frame)                       : 0.075\nStream size                              : 41.4 MiB (97%)\nColor primaries                          : BT.709\nTransfer characteristics                 : BT.709\nMatrix coefficients                      : BT.709\n\nAudio\nID                                       : 2\nFormat                                   : AAC\nFormat/Info                              : Advanced Audio Codec\nFormat profile                           : LC\nCodec ID                                 : 40\nDuration                                 : 1mn 29s\nBit rate mode                            : Constant\nBit rate                                 : 126 Kbps\nChannel(s)                               : 2 channels\nChannel positions                        : Front: L R\nSampling rate                            : 44.1 KHz\nCompression mode                         : Lossy\nStream size                              : 1.34 MiB (3%)\n\n[IMG]http://imageshack.us/a/img89/4822/zka.gif[/IMG]\n\n[IMG]http://imageshack.us/a/img200/185/tj8.gif[/IMG]\n\n[IMG]http://imageshack.us/a/img593/9603/ua8.gif[/IMG]\n\n[IMG]http://imageshack.us/a/img707/5608/ysmp.png[/IMG][/b][/center]","torrent":{"xt":"urn:btih:dd29ab04015f5984784c0de37debb3a39e311473","amp;dn":"Jai+Ho+%282014%29+-+Baaki+Sab+First+Class+-+Salman+Khan+-+HD+1080p+%7B","amp;tr":["udp%3A%2F%2Ftracker.openbittorrent.com%3A80","udp%3A%2F%2Fopen.demonii.com%3A1337","udp%3A%2F%2Ftracker.coppersurfer.tk%3A6969","udp%3A%2F%2Fexodus.desync.com%3A6969"],"infoHash":"dd29ab04015f5984784c0de37debb3a39e311473","infoHashBuffer":{"type":"Buffer","data":[221,41,171,4,1,95,89,132,120,76,13,227,125,235,179,163,158,49,20,115]},"announce":[],"urlList":[]}}